<svg width="507.04999999999995px" height="122px" xmlns="http://www.w3.org/2000/svg" viewBox="-3.5249999999999773 14 507.04999999999995 122" style="background: rgba(0, 0, 0, 0);" preserveAspectRatio="xMidYMid"><defs><linearGradient id="editing-rainbow-gradient" x1="0" x2="1" y1="0.5" y2="0.5" gradientUnits="objectBoundingBox"><stop offset="0.00" stop-color="#f00"></stop><stop offset="0.17" stop-color="#f90"></stop><stop offset="0.34" stop-color="#ff4"></stop><stop offset="0.51" stop-color="#9f0"></stop><stop offset="0.68" stop-color="#09f"></stop><stop offset="0.85" stop-color="#00f"></stop><stop offset="1.00" stop-color="#90f"></stop></linearGradient><filter id="editing-rainbow" x="-100%" y="-100%" width="300%" height="300%"><feMorphology operator="dilate" radius="1,2" in="SourceGraphic" result="dilate"></feMorphology><feColorMatrix in="dilate" result="color" type="matrix" values="0.7 0 0 0 0  0 0.7 0 0 0  0 0 0.7 0 0  0 0 0 1 0"></feColorMatrix><feOffset dy="2" result="offset"></feOffset><feGaussianBlur stdDeviation="3"></feGaussianBlur><feOffset dy="3"></feOffset><feColorMatrix result="blur" type="matrix" values="0.7 0 0 0 0  0 0.7 0 0 0  0 0 0.7 0 0  0 0 0 1 0"></feColorMatrix><feMerge><feMergeNode in="blur"></feMergeNode><feMergeNode in="offset"></feMergeNode><feMergeNode in="SourceGraphic"></feMergeNode></feMerge></filter></defs><g filter="url(#editing-rainbow)"><g transform="translate(74.06410026550293, 97.4000015258789)"><path d="M29.18 1.28L29.18 1.28L29.18 1.28Q20.99 1.28 20.22-10.37L20.22-10.37L9.22-10.37L9.22-10.37Q7.94-7.42 7.04-4.86L7.04-4.86L5.38 0L-3.58 0L16.58-42.24L30.34-42.24L33.02-11.14L33.02-11.14Q33.66-4.42 36.22-2.43L36.22-2.43L36.22-2.43Q34.37 1.28 29.18 1.28ZM14.72-23.17L11.20-15.04L20.03-15.04L19.26-31.49L19.26-33.22L14.72-23.17ZM59.97-17.98L59.97-17.98L59.97-17.98Q62.27-22.08 62.27-26.24L62.27-26.24L62.27-26.24Q62.27-28.99 60.29-28.99L60.29-28.99L60.29-28.99Q58.75-28.99 57.15-26.37L57.15-26.37L57.15-26.37Q55.49-23.74 54.98-20.35L54.98-20.35L51.65 0L38.40 1.28L44.93-32.64L55.49-33.92L54.34-27.46L54.34-27.46Q57.47-33.92 64.51-33.92L64.51-33.92L64.51-33.92Q68.22-33.92 70.24-32L70.24-32L70.24-32Q72.26-30.08 72.26-26.14L72.26-26.14L72.26-26.14Q72.26-22.21 69.66-19.71L69.66-19.71L69.66-19.71Q67.07-17.22 62.66-17.22L62.66-17.22L62.66-17.22Q60.74-17.22 59.97-17.98ZM74.30-6.40L74.30-6.40L74.30-6.40Q74.30-8.13 75.20-12.48L75.20-12.48L78.59-29.76L74.82-29.76L75.07-31.68L75.07-31.68Q82.75-33.98 90.18-39.62L90.18-39.62L93.25-39.62L91.71-32.64L96.70-32.64L96.13-29.76L91.20-29.76L87.94-12.48L87.94-12.48Q87.10-8.51 87.10-7.17L87.10-7.17L87.10-7.17Q87.10-4.10 89.79-3.46L89.79-3.46L89.79-3.46Q89.15-1.28 86.85 0L86.85 0L86.85 0Q84.54 1.28 81.28 1.28L81.28 1.28L81.28 1.28Q78.02 1.28 76.16-0.77L76.16-0.77L76.16-0.77Q74.30-2.82 74.30-6.40ZM122.05-10.82L122.05-10.82L122.05-10.82Q123.65-9.73 123.65-7.33L123.65-7.33L123.65-7.33Q123.65-4.93 122.43-3.39L122.43-3.39L122.43-3.39Q121.22-1.86 119.23-0.83L119.23-0.83L119.23-0.83Q115.14 1.28 110.72 1.28L110.72 1.28L110.72 1.28Q106.30 1.28 103.71 0.32L103.71 0.32L103.71 0.32Q101.12-0.64 99.39-2.43L99.39-2.43L99.39-2.43Q96-5.82 96-12.03L96-12.03L96-12.03Q96-21.70 101.25-27.58L101.25-27.58L101.25-27.58Q106.88-33.92 116.67-33.92L116.67-33.92L116.67-33.92Q122.75-33.92 125.76-31.36L125.76-31.36L125.76-31.36Q128-29.44 128-26.30L128-26.30L128-26.30Q128-15.04 108.54-15.04L108.54-15.04L108.54-15.04Q108.29-13.38 108.29-11.97L108.29-11.97L108.29-11.97Q108.29-9.02 109.60-7.90L109.60-7.90L109.60-7.90Q110.91-6.78 113.34-6.78L113.34-6.78L113.34-6.78Q115.78-6.78 118.37-7.90L118.37-7.90L118.37-7.90Q120.96-9.02 122.05-10.82ZM108.99-17.79L108.99-17.79L108.99-17.79Q113.54-17.79 116.16-20.61L116.16-20.61L116.16-20.61Q118.78-23.30 118.78-27.58L118.78-27.58L118.78-27.58Q118.78-29.06 118.24-29.86L118.24-29.86L118.24-29.86Q117.70-30.66 116.61-30.66L116.61-30.66L116.61-30.66Q115.52-30.66 114.59-30.24L114.59-30.24L114.59-30.24Q113.66-29.82 112.70-28.42L112.70-28.42L112.70-28.42Q110.34-25.22 108.99-17.79ZM149.31-22.46L149.31-22.46L149.31-22.46Q150.21-24.83 150.21-26.88L150.21-26.88L150.21-26.88Q150.21-30.66 147.14-30.66L147.14-30.66L147.14-30.66Q145.54-30.66 144.22-29.22L144.22-29.22L144.22-29.22Q142.91-27.78 142.91-25.98L142.91-25.98L142.91-25.98Q142.91-24.70 143.94-23.68L143.94-23.68L143.94-23.68Q145.41-22.27 149.18-19.97L149.18-19.97L149.18-19.97Q152.96-17.66 154.40-15.78L154.40-15.78L154.40-15.78Q155.84-13.89 155.84-11.30L155.84-11.30L155.84-11.30Q155.84-8.70 154.59-6.34L154.59-6.34L154.59-6.34Q153.34-3.97 151.10-2.30L151.10-2.30L151.10-2.30Q146.30 1.28 138.62 1.28L138.62 1.28L138.62 1.28Q134.46 1.28 131.26-0.90L131.26-0.90L131.26-0.90Q128.06-3.01 128.06-5.50L128.06-5.50L128.06-5.50Q128.06-8 129.89-9.47L129.89-9.47L129.89-9.47Q131.71-10.94 134.40-10.94L134.40-10.94L134.40-10.94Q137.09-10.94 138.75-9.92L138.75-9.92L138.75-9.92Q137.92-7.81 137.92-6.40L137.92-6.40L137.92-6.40Q137.92-2.18 141.50-2.18L141.50-2.18L141.50-2.18Q143.04-2.18 144.06-3.14L144.06-3.14L144.06-3.14Q145.09-4.10 145.09-5.76L145.09-5.76L145.09-5.76Q145.09-9.02 139.58-12.48L139.58-12.48L139.58-12.48Q135.10-15.42 134.08-16.58L134.08-16.58L134.08-16.58Q132.35-18.62 132.35-21.18L132.35-21.18L132.35-21.18Q132.35-23.74 133.57-26.18L133.57-26.18L133.57-26.18Q134.78-28.61 137.02-30.34L137.02-30.34L137.02-30.34Q141.70-33.92 149.82-33.92L149.82-33.92L149.82-33.92Q153.98-33.92 156.45-32.26L156.45-32.26L156.45-32.26Q158.91-30.59 158.91-27.78L158.91-27.78L158.91-27.78Q158.91-24.96 157.22-23.36L157.22-23.36L157.22-23.36Q155.52-21.76 152.45-21.76L152.45-21.76L152.45-21.76Q150.34-21.76 149.31-22.46ZM200.38-20.61L213.31-21.76L213.31-21.76Q208.70-11.65 208.70 0.06L208.70 0.06L208.70 0.06Q206.98 1.28 204.45 1.28L204.45 1.28L204.45 1.28Q201.92 1.28 200.32 0.10L200.32 0.10L200.32 0.10Q198.72-1.09 198.40-2.30L198.40-2.30L198.40-2.30Q196.80-0.64 194.21 0.32L194.21 0.32L194.21 0.32Q191.62 1.28 188.86 1.28L188.86 1.28L188.86 1.28Q186.11 1.28 183.71 0.38L183.71 0.38L183.71 0.38Q181.31-0.51 179.46-2.50L179.46-2.50L179.46-2.50Q175.36-6.85 175.36-15.10L175.36-15.10L175.36-15.10Q175.36-27.90 182.21-35.58L182.21-35.58L182.21-35.58Q189.25-43.52 201.73-43.52L201.73-43.52L201.73-43.52Q210.37-43.52 213.44-39.04L213.44-39.04L213.44-39.04Q214.40-37.63 214.40-35.94L214.40-35.94L214.40-35.94Q214.40-34.24 213.66-32.80L213.66-32.80L213.66-32.80Q212.93-31.36 211.78-30.21L211.78-30.21L211.78-30.21Q209.02-27.65 205.63-27.65L205.63-27.65L205.63-27.65Q204.29-27.65 203.01-28.10L203.01-28.10L203.01-28.10Q203.26-30.02 203.26-32.26L203.26-32.26L203.26-32.26Q203.26-34.50 203.10-35.52L203.10-35.52L203.10-35.52Q202.94-36.54 202.56-37.38L202.56-37.38L202.56-37.38Q201.73-39.10 199.90-39.10L199.90-39.10L199.90-39.10Q198.08-39.10 196.06-37.15L196.06-37.15L196.06-37.15Q194.05-35.20 192.45-32L192.45-32L192.45-32Q188.93-24.83 188.93-16.19L188.93-16.19L188.93-16.19Q188.93-12.22 190.46-9.41L190.46-9.41L190.46-9.41Q192.13-6.34 195.07-6.34L195.07-6.34L195.07-6.34Q196.10-6.34 197.02-6.85L197.02-6.85L197.02-6.85Q197.95-7.36 198.34-7.74L198.34-7.74L200.38-20.61ZM236.48-17.98L236.48-17.98L236.48-17.98Q238.78-22.08 238.78-26.24L238.78-26.24L238.78-26.24Q238.78-28.99 236.80-28.99L236.80-28.99L236.80-28.99Q235.26-28.99 233.66-26.37L233.66-26.37L233.66-26.37Q232-23.74 231.49-20.35L231.49-20.35L228.16 0L214.91 1.28L221.44-32.64L232-33.92L230.85-27.46L230.85-27.46Q233.98-33.92 241.02-33.92L241.02-33.92L241.02-33.92Q244.74-33.92 246.75-32L246.75-32L246.75-32Q248.77-30.08 248.77-26.14L248.77-26.14L248.77-26.14Q248.77-22.21 246.18-19.71L246.18-19.71L246.18-19.71Q243.58-17.22 239.17-17.22L239.17-17.22L239.17-17.22Q237.25-17.22 236.48-17.98ZM275.71-10.82L275.71-10.82L275.71-10.82Q277.31-9.73 277.31-7.33L277.31-7.33L277.31-7.33Q277.31-4.93 276.10-3.39L276.10-3.39L276.10-3.39Q274.88-1.86 272.90-0.83L272.90-0.83L272.90-0.83Q268.80 1.28 264.38 1.28L264.38 1.28L264.38 1.28Q259.97 1.28 257.38 0.32L257.38 0.32L257.38 0.32Q254.78-0.64 253.06-2.43L253.06-2.43L253.06-2.43Q249.66-5.82 249.66-12.03L249.66-12.03L249.66-12.03Q249.66-21.70 254.91-27.58L254.91-27.58L254.91-27.58Q260.54-33.92 270.34-33.92L270.34-33.92L270.34-33.92Q276.42-33.92 279.42-31.36L279.42-31.36L279.42-31.36Q281.66-29.44 281.66-26.30L281.66-26.30L281.66-26.30Q281.66-15.04 262.21-15.04L262.21-15.04L262.21-15.04Q261.95-13.38 261.95-11.97L261.95-11.97L261.95-11.97Q261.95-9.02 263.26-7.90L263.26-7.90L263.26-7.90Q264.58-6.78 267.01-6.78L267.01-6.78L267.01-6.78Q269.44-6.78 272.03-7.90L272.03-7.90L272.03-7.90Q274.62-9.02 275.71-10.82ZM262.66-17.79L262.66-17.79L262.66-17.79Q267.20-17.79 269.82-20.61L269.82-20.61L269.82-20.61Q272.45-23.30 272.45-27.58L272.45-27.58L272.45-27.58Q272.45-29.06 271.90-29.86L271.90-29.86L271.90-29.86Q271.36-30.66 270.27-30.66L270.27-30.66L270.27-30.66Q269.18-30.66 268.26-30.24L268.26-30.24L268.26-30.24Q267.33-29.82 266.37-28.42L266.37-28.42L266.37-28.42Q264-25.22 262.66-17.79ZM315.26-26.62L315.26-26.62L315.26-26.62Q315.26-23.94 313.02-22.27L313.02-22.27L313.02-22.27Q310.78-20.61 307.14-20.61L307.14-20.61L307.14-20.61Q305.60-20.61 304.70-21.06L304.70-21.06L304.70-21.06Q305.41-22.72 305.63-24.80L305.63-24.80L305.63-24.80Q305.86-26.88 305.86-27.46L305.86-27.46L305.86-27.46Q305.86-30.14 304-30.14L304-30.14L304-30.14Q302.72-30.14 301.28-28.54L301.28-28.54L301.28-28.54Q299.84-26.94 298.62-24.45L298.62-24.45L298.62-24.45Q295.94-18.69 295.94-12.86L295.94-12.86L295.94-12.86Q295.94-9.66 297.15-8.22L297.15-8.22L297.15-8.22Q298.37-6.78 301.06-6.78L301.06-6.78L301.06-6.78Q304.77-6.78 307.71-9.86L307.71-9.86L307.71-9.86Q308.54-10.82 308.99-11.90L308.99-11.90L308.99-11.90Q311.42-10.62 311.42-7.10L311.42-7.10L311.42-7.10Q311.42-3.52 307.46-1.15L307.46-1.15L307.46-1.15Q303.36 1.28 296.83 1.28L296.83 1.28L296.83 1.28Q283.84 1.28 283.84-12.48L283.84-12.48L283.84-12.48Q283.84-22.53 289.54-28.29L289.54-28.29L289.54-28.29Q295.04-33.92 305.15-33.92L305.15-33.92L305.15-33.92Q315.26-33.92 315.26-26.62ZM330.94 1.28L330.94 1.28L330.94 1.28Q316.86 1.28 316.86-11.97L316.86-11.97L316.86-11.97Q316.86-21.38 322.05-27.46L322.05-27.46L322.05-27.46Q327.55-33.92 337.09-33.92L337.09-33.92L337.09-33.92Q344-33.92 347.52-30.72L347.52-30.72L347.52-30.72Q351.04-27.52 351.04-20.80L351.04-20.80L351.04-20.80Q351.04-10.56 345.54-4.61L345.54-4.61L345.54-4.61Q340.16 1.28 330.94 1.28ZM332.61-26.56L332.61-26.56L332.61-26.56Q331.84-24.83 331.23-22.24L331.23-22.24L331.23-22.24Q330.62-19.65 329.86-15.55L329.86-15.55L329.86-15.55Q329.09-11.46 329.09-6.40L329.09-6.40L329.09-6.40Q329.09-4.74 329.63-3.65L329.63-3.65L329.63-3.65Q330.18-2.56 331.65-2.56L331.65-2.56L331.65-2.56Q333.12-2.56 334.05-3.26L334.05-3.26L334.05-3.26Q334.98-3.97 335.68-5.63L335.68-5.63L335.68-5.63Q336.96-8.58 337.98-14.05L337.98-14.05L337.98-14.05Q339.01-19.52 339.10-21.89L339.10-21.89L339.10-21.89Q339.20-24.26 339.20-26.02L339.20-26.02L339.20-26.02Q339.20-27.78 338.69-28.93L338.69-28.93L338.69-28.93Q338.18-30.08 336.74-30.08L336.74-30.08L336.74-30.08Q335.30-30.08 334.34-29.18L334.34-29.18L334.34-29.18Q333.38-28.29 332.61-26.56Z" fill="url(#editing-rainbow-gradient)"></path></g></g><style>text {
  font-size: 64px;
  font-family: Arial Black;
  dominant-baseline: central;
  text-anchor: middle;
}</style></svg>