<svg width="243.85625px" height="122px" xmlns="http://www.w3.org/2000/svg" viewBox="128.071875 14 243.85625 122" style="background: rgba(0, 0, 0, 0);" preserveAspectRatio="xMidYMid"><defs><linearGradient id="editing-rainbow-gradient" x1="0" x2="1" y1="0.5" y2="0.5" gradientUnits="objectBoundingBox"><stop offset="0.00" stop-color="#f00"></stop><stop offset="0.17" stop-color="#f90"></stop><stop offset="0.34" stop-color="#ff4"></stop><stop offset="0.51" stop-color="#9f0"></stop><stop offset="0.68" stop-color="#09f"></stop><stop offset="0.85" stop-color="#00f"></stop><stop offset="1.00" stop-color="#90f"></stop></linearGradient><filter id="editing-rainbow" x="-100%" y="-100%" width="300%" height="300%"><feMorphology operator="dilate" radius="1,2" in="SourceGraphic" result="dilate"></feMorphology><feColorMatrix in="dilate" result="color" type="matrix" values="0.7 0 0 0 0  0 0.7 0 0 0  0 0 0.7 0 0  0 0 0 1 0"></feColorMatrix><feOffset dy="2" result="offset"></feOffset><feGaussianBlur stdDeviation="3"></feGaussianBlur><feOffset dy="3"></feOffset><feColorMatrix result="blur" type="matrix" values="0.7 0 0 0 0  0 0.7 0 0 0  0 0 0.7 0 0  0 0 0 1 0"></feColorMatrix><feMerge><feMergeNode in="blur"></feMergeNode><feMergeNode in="offset"></feMergeNode><feMergeNode in="SourceGraphic"></feMergeNode></feMerge></filter></defs><g filter="url(#editing-rainbow)"><g transform="translate(170.12912559509277, 96.76000213623047)"><path d="M29.18 1.28L29.18 1.28L29.18 1.28Q20.99 1.28 20.22-10.37L20.22-10.37L9.22-10.37L9.22-10.37Q7.94-7.42 7.04-4.86L7.04-4.86L5.38 0L-3.58 0L16.58-42.24L30.34-42.24L33.02-11.14L33.02-11.14Q33.66-4.42 36.22-2.43L36.22-2.43L36.22-2.43Q34.37 1.28 29.18 1.28ZM14.72-23.17L11.20-15.04L20.03-15.04L19.26-31.49L19.26-33.22L14.72-23.17ZM59.97-17.98L59.97-17.98L59.97-17.98Q62.27-22.08 62.27-26.24L62.27-26.24L62.27-26.24Q62.27-28.99 60.29-28.99L60.29-28.99L60.29-28.99Q58.75-28.99 57.15-26.37L57.15-26.37L57.15-26.37Q55.49-23.74 54.98-20.35L54.98-20.35L51.65 0L38.40 1.28L44.93-32.64L55.49-33.92L54.34-27.46L54.34-27.46Q57.47-33.92 64.51-33.92L64.51-33.92L64.51-33.92Q68.22-33.92 70.24-32L70.24-32L70.24-32Q72.26-30.08 72.26-26.14L72.26-26.14L72.26-26.14Q72.26-22.21 69.66-19.71L69.66-19.71L69.66-19.71Q67.07-17.22 62.66-17.22L62.66-17.22L62.66-17.22Q60.74-17.22 59.97-17.98ZM74.30-6.40L74.30-6.40L74.30-6.40Q74.30-8.13 75.20-12.48L75.20-12.48L78.59-29.76L74.82-29.76L75.07-31.68L75.07-31.68Q82.75-33.98 90.18-39.62L90.18-39.62L93.25-39.62L91.71-32.64L96.70-32.64L96.13-29.76L91.20-29.76L87.94-12.48L87.94-12.48Q87.10-8.51 87.10-7.17L87.10-7.17L87.10-7.17Q87.10-4.10 89.79-3.46L89.79-3.46L89.79-3.46Q89.15-1.28 86.85 0L86.85 0L86.85 0Q84.54 1.28 81.28 1.28L81.28 1.28L81.28 1.28Q78.02 1.28 76.16-0.77L76.16-0.77L76.16-0.77Q74.30-2.82 74.30-6.40ZM122.05-10.82L122.05-10.82L122.05-10.82Q123.65-9.73 123.65-7.33L123.65-7.33L123.65-7.33Q123.65-4.93 122.43-3.39L122.43-3.39L122.43-3.39Q121.22-1.86 119.23-0.83L119.23-0.83L119.23-0.83Q115.14 1.28 110.72 1.28L110.72 1.28L110.72 1.28Q106.30 1.28 103.71 0.32L103.71 0.32L103.71 0.32Q101.12-0.64 99.39-2.43L99.39-2.43L99.39-2.43Q96-5.82 96-12.03L96-12.03L96-12.03Q96-21.70 101.25-27.58L101.25-27.58L101.25-27.58Q106.88-33.92 116.67-33.92L116.67-33.92L116.67-33.92Q122.75-33.92 125.76-31.36L125.76-31.36L125.76-31.36Q128-29.44 128-26.30L128-26.30L128-26.30Q128-15.04 108.54-15.04L108.54-15.04L108.54-15.04Q108.29-13.38 108.29-11.97L108.29-11.97L108.29-11.97Q108.29-9.02 109.60-7.90L109.60-7.90L109.60-7.90Q110.91-6.78 113.34-6.78L113.34-6.78L113.34-6.78Q115.78-6.78 118.37-7.90L118.37-7.90L118.37-7.90Q120.96-9.02 122.05-10.82ZM108.99-17.79L108.99-17.79L108.99-17.79Q113.54-17.79 116.16-20.61L116.16-20.61L116.16-20.61Q118.78-23.30 118.78-27.58L118.78-27.58L118.78-27.58Q118.78-29.06 118.24-29.86L118.24-29.86L118.24-29.86Q117.70-30.66 116.61-30.66L116.61-30.66L116.61-30.66Q115.52-30.66 114.59-30.24L114.59-30.24L114.59-30.24Q113.66-29.82 112.70-28.42L112.70-28.42L112.70-28.42Q110.34-25.22 108.99-17.79ZM149.31-22.46L149.31-22.46L149.31-22.46Q150.21-24.83 150.21-26.88L150.21-26.88L150.21-26.88Q150.21-30.66 147.14-30.66L147.14-30.66L147.14-30.66Q145.54-30.66 144.22-29.22L144.22-29.22L144.22-29.22Q142.91-27.78 142.91-25.98L142.91-25.98L142.91-25.98Q142.91-24.70 143.94-23.68L143.94-23.68L143.94-23.68Q145.41-22.27 149.18-19.97L149.18-19.97L149.18-19.97Q152.96-17.66 154.40-15.78L154.40-15.78L154.40-15.78Q155.84-13.89 155.84-11.30L155.84-11.30L155.84-11.30Q155.84-8.70 154.59-6.34L154.59-6.34L154.59-6.34Q153.34-3.97 151.10-2.30L151.10-2.30L151.10-2.30Q146.30 1.28 138.62 1.28L138.62 1.28L138.62 1.28Q134.46 1.28 131.26-0.90L131.26-0.90L131.26-0.90Q128.06-3.01 128.06-5.50L128.06-5.50L128.06-5.50Q128.06-8 129.89-9.47L129.89-9.47L129.89-9.47Q131.71-10.94 134.40-10.94L134.40-10.94L134.40-10.94Q137.09-10.94 138.75-9.92L138.75-9.92L138.75-9.92Q137.92-7.81 137.92-6.40L137.92-6.40L137.92-6.40Q137.92-2.18 141.50-2.18L141.50-2.18L141.50-2.18Q143.04-2.18 144.06-3.14L144.06-3.14L144.06-3.14Q145.09-4.10 145.09-5.76L145.09-5.76L145.09-5.76Q145.09-9.02 139.58-12.48L139.58-12.48L139.58-12.48Q135.10-15.42 134.08-16.58L134.08-16.58L134.08-16.58Q132.35-18.62 132.35-21.18L132.35-21.18L132.35-21.18Q132.35-23.74 133.57-26.18L133.57-26.18L133.57-26.18Q134.78-28.61 137.02-30.34L137.02-30.34L137.02-30.34Q141.70-33.92 149.82-33.92L149.82-33.92L149.82-33.92Q153.98-33.92 156.45-32.26L156.45-32.26L156.45-32.26Q158.91-30.59 158.91-27.78L158.91-27.78L158.91-27.78Q158.91-24.96 157.22-23.36L157.22-23.36L157.22-23.36Q155.52-21.76 152.45-21.76L152.45-21.76L152.45-21.76Q150.34-21.76 149.31-22.46Z" fill="url(#editing-rainbow-gradient)"></path></g></g><style>text {
  font-size: 64px;
  font-family: Arial Black;
  dominant-baseline: central;
  text-anchor: middle;
}</style></svg>